<svg width="184" height="30" viewBox="0 0 184 30" fill="none" xmlns="http://www.w3.org/2000/svg">
<path fill-rule="evenodd" clip-rule="evenodd" d="M12.8571 0H0V30H30V0H23.1429V6.85714H26.5714V10.2857H23.1429V13.7143H26.5714V17.1429H23.1429V26.5714H19.7143V17.1429H16.2857V23.1429H12.8571V17.1429H3.42857V13.7143H12.8571V10.2857H6.85714V6.85714H12.8571V0ZM16.2857 0V6.85714H19.7143V0H16.2857ZM16.2857 13.7143V10.2857H19.7143V13.7143H16.2857Z" fill="black"/>
<path d="M44.4725 14.8352H56.8352V29.4231H51.8901V26.2088H51.1484C50.8187 27.2802 50.1868 28.1868 49.2527 28.9286C48.3187 29.6429 46.9176 30 45.0494 30C43.7308 30 42.4945 29.7527 41.3407 29.2582C40.1868 28.7637 39.1841 28.0357 38.3324 27.0742C37.4808 26.0852 36.8077 24.8764 36.3132 23.4478C35.8187 21.9918 35.5714 20.3022 35.5714 18.3791V11.6209C35.5714 9.75275 35.8324 8.1044 36.3544 6.67582C36.9038 5.21978 37.6456 3.99725 38.5797 3.00824C39.5412 2.01923 40.6813 1.27747 42 0.782967C43.3187 0.260989 44.7747 0 46.3681 0C48.0165 0 49.4863 0.274726 50.7775 0.824177C52.0687 1.34616 53.1676 2.08791 54.0742 3.04945C54.9808 3.98352 55.6676 5.09615 56.1346 6.38736C56.6016 7.6511 56.8352 9.01099 56.8352 10.467V10.9615H51.3956V10.467C51.3956 8.73626 50.9423 7.43132 50.0357 6.5522C49.1566 5.64561 47.9066 5.19231 46.2857 5.19231C44.7473 5.19231 43.4835 5.71429 42.4945 6.75824C41.5055 7.77473 41.011 9.53297 41.011 12.033V18.1319C41.011 22.5824 42.8242 24.8077 46.4506 24.8077C48.0714 24.8077 49.294 24.3819 50.1181 23.5302C50.9698 22.6511 51.3956 21.4835 51.3956 20.0275H44.4725V14.8352Z" fill="black"/>
<path d="M62.3697 0.576923H80.584V5.76923H67.8092V12.3626H80.0895V17.5549H67.8092V24.2308H81.0785V29.4231H62.3697V0.576923Z" fill="black"/>
<path d="M86.2009 11.7857C86.2009 8.04945 87.135 5.1511 89.0031 3.09066C90.8987 1.03022 93.5086 0 96.8328 0C100.157 0 102.753 1.03022 104.621 3.09066C106.517 5.1511 107.465 8.04945 107.465 11.7857V18.2143C107.465 22.0604 106.517 24.9863 104.621 26.9918C102.753 28.9973 100.157 30 96.8328 30C93.5086 30 90.8987 28.9973 89.0031 26.9918C87.135 24.9863 86.2009 22.0604 86.2009 18.2143V11.7857ZM96.8328 25.0549C97.8218 25.0549 98.646 24.9038 99.3053 24.6016C99.9647 24.272 100.5 23.8187 100.912 23.2418C101.325 22.6648 101.613 21.978 101.778 21.1813C101.943 20.3846 102.025 19.5055 102.025 18.544V11.456C102.025 10.5494 101.929 9.6978 101.737 8.9011C101.544 8.1044 101.242 7.41758 100.83 6.84066C100.418 6.26374 99.8822 5.81044 99.2229 5.48077C98.5636 5.12363 97.7669 4.94505 96.8328 4.94505C95.8987 4.94505 95.102 5.12363 94.4427 5.48077C93.7833 5.81044 93.2476 6.26374 92.8355 6.84066C92.4235 7.41758 92.1213 8.1044 91.929 8.9011C91.7366 9.6978 91.6405 10.5494 91.6405 11.456V18.544C91.6405 19.5055 91.7229 20.3846 91.8877 21.1813C92.0526 21.978 92.341 22.6648 92.7531 23.2418C93.1652 23.8187 93.7009 24.272 94.3603 24.6016C95.0196 24.9038 95.8438 25.0549 96.8328 25.0549Z" fill="black"/>
<path d="M120.17 14.8352H132.532V29.4231H127.587V26.2088H126.845C126.516 27.2802 125.884 28.1868 124.95 28.9286C124.016 29.6429 122.615 30 120.746 30C119.428 30 118.192 29.7527 117.038 29.2582C115.884 28.7637 114.881 28.0357 114.029 27.0742C113.178 26.0852 112.505 24.8764 112.01 23.4478C111.516 21.9918 111.268 20.3022 111.268 18.3791V11.6209C111.268 9.75275 111.529 8.1044 112.051 6.67582C112.601 5.21978 113.343 3.99725 114.277 3.00824C115.238 2.01923 116.378 1.27747 117.697 0.782967C119.016 0.260989 120.472 0 122.065 0C123.713 0 125.183 0.274726 126.474 0.824177C127.766 1.34616 128.865 2.08791 129.771 3.04945C130.678 3.98352 131.365 5.09615 131.832 6.38736C132.299 7.6511 132.532 9.01099 132.532 10.467V10.9615H127.093V10.467C127.093 8.73626 126.639 7.43132 125.733 6.5522C124.854 5.64561 123.604 5.19231 121.983 5.19231C120.444 5.19231 119.181 5.71429 118.192 6.75824C117.202 7.77473 116.708 9.53297 116.708 12.033V18.1319C116.708 22.5824 118.521 24.8077 122.148 24.8077C123.768 24.8077 124.991 24.3819 125.815 23.5302C126.667 22.6511 127.093 21.4835 127.093 20.0275H120.17V14.8352Z" fill="black"/>
<path d="M138.067 0.576923H156.281V5.76923H143.506V12.3626H155.786V17.5549H143.506V24.2308H156.775V29.4231H138.067V0.576923Z" fill="black"/>
<path d="M177.475 9.3956C177.475 8.24176 177.022 7.23901 176.115 6.38736C175.236 5.53571 173.986 5.10989 172.365 5.10989C170.991 5.10989 169.906 5.39835 169.109 5.97528C168.313 6.52473 167.914 7.28022 167.914 8.24176C167.914 8.73626 168.011 9.18956 168.203 9.60165C168.395 9.98626 168.725 10.3434 169.192 10.6731C169.686 10.9753 170.318 11.25 171.087 11.4973C171.884 11.7445 172.887 11.978 174.096 12.1978C177.118 12.7473 179.425 13.6676 181.019 14.9588C182.612 16.25 183.409 18.1593 183.409 20.6868V21.1813C183.409 22.5275 183.162 23.75 182.667 24.8489C182.2 25.9203 181.513 26.8407 180.607 27.6099C179.7 28.3791 178.601 28.9698 177.31 29.3819C176.019 29.794 174.563 30 172.942 30C171.046 30 169.37 29.739 167.914 29.217C166.486 28.6676 165.291 27.9258 164.329 26.9918C163.368 26.0302 162.64 24.9176 162.145 23.6538C161.651 22.3626 161.403 20.9615 161.403 19.4505V18.2143H166.843V19.2033C166.843 20.9341 167.337 22.3214 168.327 23.3654C169.343 24.3819 170.909 24.8901 173.024 24.8901C174.673 24.8901 175.895 24.533 176.692 23.8187C177.489 23.1044 177.887 22.2527 177.887 21.2637C177.887 20.7967 177.805 20.3571 177.64 19.9451C177.475 19.5055 177.186 19.1209 176.774 18.7912C176.362 18.4341 175.799 18.1181 175.085 17.8434C174.37 17.5687 173.464 17.3352 172.365 17.1429C170.909 16.8956 169.576 16.5797 168.368 16.1951C167.159 15.783 166.101 15.2472 165.195 14.5879C164.316 13.9286 163.629 13.1044 163.134 12.1154C162.64 11.1264 162.392 9.91758 162.392 8.48901V8.24176C162.392 7.06044 162.626 5.97527 163.093 4.98626C163.587 3.96978 164.261 3.09066 165.112 2.3489C165.991 1.60714 167.035 1.03022 168.244 0.618131C169.48 0.206044 170.854 0 172.365 0C174.068 0 175.579 0.247253 176.898 0.741758C178.217 1.20879 179.316 1.8544 180.195 2.67857C181.101 3.50275 181.774 4.45055 182.214 5.52198C182.681 6.59341 182.914 7.71978 182.914 8.9011V10.3846H177.475V9.3956Z" fill="black"/>
</svg>
